<?xml version="1.0" encoding="utf-8"?>
<!-- Generator: Adobe Illustrator 15.0.0, SVG Export Plug-In . SVG Version: 6.00 Build 0)  -->
<!DOCTYPE svg PUBLIC "-//W3C//DTD SVG 1.0//EN" "http://www.w3.org/TR/2001/REC-SVG-20010904/DTD/svg10.dtd">
<svg version="1.0" id="logo" xmlns="http://www.w3.org/2000/svg" xmlns:xlink="http://www.w3.org/1999/xlink" x="0px" y="0px"
	 width="200px" height="150px" viewBox="0 0 200 150" style="enable-background:new 0 0 200 150;" xml:space="preserve">
<style type="text/css">
<![CDATA[
	.st0{fill:#EE2924;}
]]>
</style>
<g>
	<path id="X" d="M2.748,3.102l47.384,47.688L2.693,98.478l45.48-0.006l24.852-25.066l24.793,25.072h45.604l-47.69-47.687
		l47.682-47.682H97.815L72.979,27.944L48.157,3.121C48.157,3.121,2.764,3.102,2.748,3.102"/>
	<path id="S" d="M196.367,3.098h-49.485h-0.05l-47.657,47.7l47.741,47.682l-48.423,48.423h50.341l48.474-48.472l-47.695-47.64
		C149.612,50.791,196.479,2.985,196.367,3.098"/>
</g>
<g id="racing">
	<path id="R" class="st0" d="M148.729,131.636c0.306,0.308,0.536,0.647,0.69,1.022c0.155,0.375,0.235,0.759,0.244,1.146
		c0.008,0.389-0.06,0.77-0.202,1.143c-0.143,0.372-0.357,0.703-0.645,0.991l5.033,0.819l-1.756,1.756l-7.551-1.229l2.81-2.81
		c0.193-0.194,0.288-0.431,0.282-0.711c-0.006-0.279-0.109-0.521-0.313-0.723c-0.202-0.203-0.443-0.307-0.723-0.313
		c-0.28-0.006-0.516,0.09-0.71,0.283l-3.513,3.512l5.854,5.854l-1.405,1.404l-7.317-7.317l4.918-4.917
		c0.288-0.287,0.617-0.503,0.99-0.646c0.372-0.143,0.753-0.21,1.143-0.202c0.389,0.008,0.773,0.092,1.151,0.25
		C148.09,131.107,148.429,131.336,148.729,131.636"/>
	<polygon id="A" class="st0" points="162.671,127.938 161.156,129.452 159.01,128.672 157.063,130.618 154.194,130.56 
		156.863,127.891 152.656,126.352 155.757,134.851 154.242,136.366 150.327,125.647 151.952,124.022 	"/>
	<path id="C" class="st0" d="M163.892,117.938l-0.732-0.732c-0.202-0.202-0.443-0.306-0.723-0.313
		c-0.28-0.004-0.518,0.09-0.711,0.283l-2.811,2.811c-0.193,0.194-0.288,0.432-0.282,0.711c0.006,0.28,0.11,0.521,0.312,0.724
		l2.927,2.927c0.202,0.201,0.443,0.306,0.724,0.312c0.279,0.006,0.516-0.089,0.711-0.283l2.81-2.81
		c0.194-0.193,0.288-0.431,0.283-0.711c-0.007-0.279-0.11-0.521-0.313-0.723l-0.732-0.732l1.404-1.404l0.732,0.732
		c0.307,0.307,0.538,0.646,0.691,1.021c0.155,0.376,0.235,0.758,0.244,1.147c0.008,0.388-0.06,0.77-0.202,1.142
		c-0.143,0.374-0.357,0.702-0.646,0.991l-2.81,2.809c-0.294,0.294-0.625,0.512-0.996,0.651c-0.369,0.139-0.748,0.204-1.137,0.196
		c-0.39-0.009-0.771-0.09-1.146-0.243c-0.375-0.154-0.716-0.386-1.022-0.692l-2.927-2.927c-0.301-0.299-0.529-0.638-0.687-1.018
		c-0.157-0.378-0.241-0.763-0.249-1.151c-0.009-0.39,0.058-0.769,0.196-1.138c0.14-0.369,0.356-0.701,0.651-0.996l2.81-2.81
		c0.288-0.288,0.618-0.502,0.99-0.646c0.373-0.143,0.754-0.211,1.142-0.202c0.39,0.009,0.774,0.092,1.153,0.25
		c0.378,0.157,0.717,0.387,1.017,0.687l0.731,0.731L163.892,117.938z"/>
	
		<rect id="I" x="167.63" y="109.492" transform="matrix(-0.7069 0.7074 -0.7074 -0.7069 368.925 76.4422)" class="st0" width="1.987" height="10.347"/>
	<polygon id="N" class="st0" points="174.39,101.585 181.707,108.901 179.951,110.657 170.726,109.159 176.087,114.521 
		174.683,115.926 167.365,108.609 169.122,106.853 178.348,108.352 172.985,102.99 	"/>
	<path id="G" class="st0" d="M181.987,100.572l4.213-4.214l1.831,1.828c0.307,0.309,0.536,0.649,0.691,1.024
		c0.155,0.374,0.235,0.757,0.243,1.146c0.008,0.39-0.059,0.771-0.202,1.143c-0.142,0.372-0.357,0.702-0.645,0.989l-2.811,2.811
		c-0.294,0.294-0.626,0.511-0.995,0.65s-0.748,0.205-1.139,0.197c-0.389-0.008-0.771-0.088-1.146-0.244
		c-0.376-0.154-0.716-0.385-1.023-0.691l-2.926-2.927c-0.301-0.3-0.529-0.639-0.688-1.018c-0.157-0.379-0.241-0.763-0.249-1.151
		c-0.007-0.39,0.059-0.769,0.198-1.138c0.139-0.369,0.355-0.702,0.649-0.996l2.811-2.811c0.288-0.286,0.617-0.503,0.99-0.645
		c0.372-0.143,0.753-0.21,1.142-0.202c0.391,0.008,0.774,0.091,1.152,0.248c0.379,0.158,0.717,0.388,1.018,0.688l-1.404,1.404
		c-0.202-0.202-0.443-0.306-0.722-0.312c-0.281-0.006-0.519,0.089-0.713,0.282l-2.809,2.81c-0.194,0.194-0.289,0.433-0.282,0.713
		c0.006,0.278,0.108,0.52,0.312,0.722l2.927,2.926c0.201,0.203,0.442,0.308,0.723,0.313c0.28,0.007,0.517-0.089,0.711-0.282
		l2.81-2.811c0.193-0.192,0.288-0.43,0.282-0.71c-0.005-0.279-0.11-0.521-0.313-0.723l-0.365-0.367l-1.404,1.405L181.987,100.572z"
		/>
</g>
<g id="stripe">
	<polygon id="red-line" class="st0" points="143.414,3.109 95.732,50.791 143.423,98.478 146.916,98.479 99.175,50.798 
		146.833,3.098 	"/>
</g>
</svg>
